<svg width="24" height="23" viewBox="0 0 24 23" fill="none" xmlns="http://www.w3.org/2000/svg">
<rect x="0.243195" width="22.8258" height="22.8258" rx="3" fill="white"/>
<path fill-rule="evenodd" clip-rule="evenodd" d="M10.7043 9.29675H12.7389V10.3102C13.032 9.72734 13.7836 9.20362 14.9126 9.20362C17.0771 9.20362 17.5909 10.3639 17.5909 12.4927V16.4354H15.3997V12.9775C15.3997 11.7652 15.1066 11.0815 14.3604 11.0815C13.3256 11.0815 12.8956 11.8184 12.8956 12.977V16.4354H10.7043V9.29675ZM6.94682 16.3422H9.13809V9.20362H6.94682V16.3422ZM9.45199 6.87594C9.45207 7.05961 9.41565 7.24147 9.34483 7.41093C9.27402 7.5804 9.17022 7.73411 9.03948 7.86311C8.77456 8.12641 8.41596 8.27379 8.04245 8.27288C7.6696 8.27263 7.31183 8.12563 7.04652 7.86366C6.91625 7.73422 6.81281 7.58034 6.74212 7.41085C6.67143 7.24136 6.63488 7.05958 6.63456 6.87594C6.63456 6.50507 6.78247 6.15008 7.04707 5.88822C7.31215 5.62591 7.67007 5.47884 8.043 5.479C8.41661 5.479 8.77489 5.62637 9.03948 5.88822C9.30353 6.15008 9.45199 6.50507 9.45199 6.87594Z" fill="black"/>
</svg>
