<svg width="24" height="23" viewBox="0 0 24 23" fill="none" xmlns="http://www.w3.org/2000/svg">
<path d="M11.7001 7.60697C9.6045 7.60697 7.89429 9.31721 7.89429 11.4129C7.89429 13.5086 9.6045 15.2188 11.7001 15.2188C13.7958 15.2188 15.506 13.5086 15.506 11.4129C15.506 9.31721 13.7958 7.60697 11.7001 7.60697ZM23.1148 11.4129C23.1148 9.83685 23.1291 8.27508 23.0406 6.70189C22.9521 4.87459 22.5352 3.25287 21.1991 1.91666C19.86 0.57759 18.2412 0.163593 16.4139 0.0750832C14.8379 -0.0134266 13.2762 0.00084925 11.703 0.00084925C10.127 0.00084925 8.56524 -0.0134266 6.99208 0.0750832C5.16482 0.163593 3.54312 0.580445 2.20693 1.91666C0.867893 3.25572 0.453904 4.87459 0.365395 6.70189C0.276887 8.27793 0.291163 9.8397 0.291163 11.4129C0.291163 12.9861 0.276887 14.5507 0.365395 16.1239C0.453904 17.9512 0.870748 19.5729 2.20693 20.9091C3.54598 22.2482 5.16482 22.6622 6.99208 22.7507C8.56809 22.8392 10.1298 22.8249 11.703 22.8249C13.279 22.8249 14.8407 22.8392 16.4139 22.7507C18.2412 22.6622 19.8629 22.2453 21.1991 20.9091C22.5381 19.5701 22.9521 17.9512 23.0406 16.1239C23.132 14.5507 23.1148 12.9889 23.1148 11.4129ZM11.7001 17.2688C8.4596 17.2688 5.84433 14.6535 5.84433 11.4129C5.84433 8.17229 8.4596 5.55697 11.7001 5.55697C14.9407 5.55697 17.5559 8.17229 17.5559 11.4129C17.5559 14.6535 14.9407 17.2688 11.7001 17.2688ZM17.7958 6.68476C17.0392 6.68476 16.4282 6.07376 16.4282 5.31714C16.4282 4.56053 17.0392 3.94952 17.7958 3.94952C18.5524 3.94952 19.1634 4.56053 19.1634 5.31714C19.1636 5.4968 19.1284 5.67474 19.0597 5.84077C18.9911 6.0068 18.8903 6.15766 18.7633 6.2847C18.6363 6.41174 18.4854 6.51247 18.3194 6.58112C18.1534 6.64977 17.9754 6.68498 17.7958 6.68476Z" fill="#B3B3DD"/>
</svg>
