<svg width="259" height="52" viewBox="0 0 259 52" fill="none" xmlns="http://www.w3.org/2000/svg">
<path d="M28.1216 34.8323C24.1641 34.8323 22.116 31.5935 22.116 27.4952C22.116 23.3968 24.1641 20.1205 28.1216 20.1205C30.9268 20.1205 32.6883 21.6685 33.1212 24.1858H36.0697C35.4257 20.2302 32.5104 17.7144 28.1216 17.7144C22.582 17.7144 19.1283 22.0998 19.1283 27.4952C19.1283 32.8905 22.582 37.2715 28.1216 37.2715C32.7622 37.2715 35.676 34.6835 36.0697 30.2244H33.1921C32.9402 33.104 31.1439 34.8323 28.1216 34.8323Z" fill="white"/>
<path d="M46.7913 17.7144C41.2503 17.7144 37.7965 22.0998 37.7965 27.4952C37.7965 32.8905 41.2503 37.2715 46.7913 37.2715C52.3716 37.2715 55.7454 32.886 55.7454 27.4907C55.7454 22.0953 52.3656 17.7144 46.7913 17.7144ZM46.7913 34.8323C42.8323 34.8323 40.7842 31.5935 40.7842 27.4952C40.7842 23.3968 42.8323 20.1205 46.7913 20.1205C50.7503 20.1205 52.7607 23.3938 52.7607 27.4952C52.7607 31.5966 50.7458 34.8323 46.7913 34.8323Z" fill="white"/>
<path d="M77.7256 17.7476C76.5687 17.7452 75.432 18.0503 74.4328 18.6315C73.4337 19.2126 72.6081 20.0489 72.0413 21.0539H71.9674C71.1771 18.8973 69.3779 17.7476 67.1126 17.7476C64.7749 17.7476 62.7977 19.0446 61.6454 20.842H61.5715V18.1849H58.6683V36.7742H61.579V25.1929C61.579 22.2803 64.0977 20.1943 66.3645 20.1943C68.2708 20.1943 69.5664 21.5619 69.5664 23.8613V36.7742H72.4787V25.1929C72.4787 22.2803 74.6369 20.1943 77.0485 20.1943C78.9186 20.1943 80.466 21.5619 80.466 23.8613V36.7742H83.3723V23.7186C83.3723 19.8697 81.0331 17.7476 77.7256 17.7476Z" fill="white"/>
<path d="M96.1752 17.7476C93.4771 17.7476 91.6069 18.9003 90.2028 20.8059H90.1319V18.1849H87.2181V42.7451H90.1319V34.5784H90.2028C91.7502 36.5577 93.5495 37.3122 96.0681 37.3122C101.102 37.3122 104.161 33.5024 104.161 27.5314C104.161 21.341 100.887 17.7476 96.1752 17.7476ZM95.851 34.867C91.5692 34.867 89.951 31.5922 89.951 27.5644C89.951 23.5367 91.8211 20.2288 95.8872 20.2288C99.4133 20.2288 101.175 23.3849 101.175 27.5644C101.175 31.774 99.4133 34.867 95.851 34.867Z" fill="white"/>
<path d="M115.023 34.8323C111.283 34.8323 109.232 31.9542 109.016 28.1775H123.404C123.404 22.0292 120.419 17.7144 114.842 17.7144C109.556 17.7144 106.025 22.0998 106.025 27.5027C106.025 32.9056 109.343 37.2715 115.023 37.2715C119.231 37.2715 122.145 35.0081 123.007 31.0134H120.167C119.519 33.5353 117.72 34.8323 115.023 34.8323ZM114.842 20.0138C118.189 20.0138 120.096 22.2801 120.271 25.9848H109.087C109.52 22.6048 111.39 20.0138 114.842 20.0138Z" fill="white"/>
<path d="M133.907 20.5551V18.185H130.307V12.3237H127.396V18.185H124.696V20.5611H127.396V33.2906C127.396 35.9176 129.121 36.887 131.495 36.887C132.281 36.8848 133.065 36.8006 133.833 36.636V34.1156H133.726C133.225 34.2717 132.705 34.3562 132.18 34.3666C130.992 34.3666 130.31 33.9353 130.31 32.6383V20.5551H133.907Z" fill="white"/>
<path d="M144.698 34.8323C140.958 34.8323 138.907 31.9542 138.691 28.1775H153.08C153.08 22.0292 150.096 17.7144 144.518 17.7144C139.231 17.7144 135.705 22.0998 135.705 27.4952C135.705 32.8905 139.023 37.276 144.699 37.276C148.907 37.276 151.821 35.0126 152.684 31.0179H149.842C149.194 33.5353 147.395 34.8323 144.698 34.8323ZM144.517 20.0138C147.862 20.0138 149.768 22.2801 149.946 25.9848H138.762C139.195 22.6048 141.065 20.0138 144.517 20.0138Z" fill="white"/>
<path d="M164.804 17.7476C162.107 17.7476 160.235 18.8642 158.905 20.6256H158.831V18.1849H155.919V36.7741H158.831V25.3357C158.831 22.2803 160.989 20.1943 163.941 20.1943C166.567 20.1943 168.149 21.5619 168.149 23.971V36.7741H171.062V23.7185C171.062 19.8696 168.689 17.7476 164.804 17.7476Z" fill="white"/>
<path d="M177.896 34.1157V34.006L188.58 19.9089V18.1851H174.767V20.74H184.514V20.8497L174.156 34.4794V36.7818H188.975V34.1157H177.896Z" fill="white"/>
<path d="M197.679 11.0581V36.7741H200.588V11.0581H197.679Z" fill="white"/>
<path d="M231.958 17.7475C229.262 17.7475 227.389 18.9348 225.984 20.8419H225.915V11.0581H223V36.7741H225.915V34.3274H225.984C227.493 36.4134 229.333 37.3121 231.85 37.3121C236.887 37.3121 239.872 33.5023 239.872 27.5313C239.872 21.3409 236.67 17.7475 231.958 17.7475ZM231.633 34.8669C227.677 34.8669 225.736 31.7364 225.736 27.5643C225.736 23.5366 227.606 20.2287 231.669 20.2287C235.195 20.2287 236.887 23.3848 236.887 27.5643C236.887 31.7739 235.195 34.8669 231.633 34.8669Z" fill="white"/>
<path d="M220.222 21.0708V30.046H217.659L217.597 22.1348L206.493 36.7715H203.11L210.868 26.5653L215.221 20.8408V20.7326H207.539V18.1792H217.332L217.326 18.1852L220.222 21.0708Z" fill="white"/>
</svg>
