<svg width="22" height="20" viewBox="0 0 22 20" fill="none" xmlns="http://www.w3.org/2000/svg">
<path d="M17.9027 19H2.66875C2.2327 19.0022 1.81313 18.8359 1.49893 18.5361C1.34286 18.3899 1.21834 18.214 1.13257 18.0188C1.04701 17.8238 1.00185 17.6136 1 17.4008V6.55432C1.00247 6.34158 1.04804 6.13169 1.1336 5.93671C1.21936 5.74174 1.34348 5.56579 1.49893 5.41905C1.71583 5.2106 1.98633 5.06489 2.28092 4.99785L14.1279 1.08548C14.5322 0.951619 14.9726 0.975732 15.3594 1.15251C15.5565 1.23937 15.7336 1.36485 15.8806 1.52098C16.0278 1.67732 16.1416 1.86125 16.2154 2.06195L17.2745 4.95517H17.8903C18.3262 4.95292 18.746 5.11928 19.0602 5.41908C19.2148 5.56602 19.3381 5.74219 19.4226 5.93715C19.5071 6.13212 19.5515 6.3422 19.5529 6.55434V8.99591H19.6144C19.7913 8.99121 19.9673 9.02227 20.1317 9.08746C20.2999 9.14857 20.4531 9.24421 20.5811 9.36827C20.7153 9.48925 20.8221 9.637 20.8953 9.80152C20.9671 9.96297 21.0027 10.1379 20.9998 10.3143V13.6287C20.999 13.8043 20.9627 13.978 20.8928 14.1394C20.8229 14.3009 20.7213 14.4468 20.5935 14.5686C20.3349 14.8134 19.9904 14.9491 19.6329 14.9471H19.5529V17.3884C19.5523 17.6018 19.5084 17.8129 19.4239 18.0089C19.3391 18.2051 19.2156 18.3822 19.0602 18.5298C18.7491 18.8274 18.335 18.9955 17.9027 19ZM2.47135 5.89543C2.34703 5.92813 2.23261 5.99107 2.139 6.07854C2.07241 6.13944 2.01922 6.21301 1.9821 6.29496C1.94499 6.37671 1.9252 6.46499 1.92334 6.55471V17.4012C1.9252 17.4909 1.94499 17.5792 1.9821 17.6612C2.01922 17.7429 2.07241 17.8165 2.139 17.8774C2.28147 18.0121 2.47135 18.0867 2.66844 18.0848H17.9023C18.0994 18.0867 18.2893 18.0121 18.432 17.8774C18.4976 17.8161 18.5499 17.7425 18.586 17.6606C18.6219 17.5788 18.6408 17.4905 18.6413 17.4012V14.9597H14.8974C14.8031 14.9658 14.7085 14.9658 14.6143 14.9597C14.1636 14.9233 13.7267 14.79 13.3333 14.5691L13.1795 14.4776C12.6694 14.1561 12.2684 13.6906 12.0281 13.1408C11.7887 12.5974 11.7262 11.9937 11.8493 11.4135C11.9474 10.98 12.14 10.5729 12.4134 10.2208C12.6868 9.86866 13.0344 9.57989 13.4319 9.3747C13.7255 9.22327 14.0414 9.11823 14.3679 9.06346C14.544 9.02728 14.724 9.01298 14.9035 9.02074H18.666V6.57939C18.6653 6.49008 18.6466 6.40179 18.6105 6.31984C18.5746 6.2381 18.522 6.16432 18.4565 6.10322C18.314 5.96834 18.1241 5.89395 17.927 5.89558H2.68047C2.61306 5.88679 2.54461 5.88679 2.47719 5.89558L2.47135 5.89543ZM14.8974 14.0382H19.6696C19.7884 14.041 19.9036 13.9971 19.9898 13.916C20.0282 13.8796 20.0587 13.836 20.0799 13.7878C20.1009 13.7396 20.1123 13.6879 20.1129 13.6352V10.3209C20.1148 10.2702 20.104 10.2202 20.0822 10.1744C20.0632 10.1227 20.0315 10.0765 19.9898 10.0401C19.9453 10.0027 19.8954 9.97207 19.842 9.94857C19.7845 9.92916 19.7243 9.91873 19.6634 9.91812H14.8974C14.3227 9.91996 13.7704 10.138 13.3519 10.5284C13.1515 10.7139 12.9917 10.9385 12.8824 11.1878C12.7732 11.4371 12.7167 11.7061 12.7167 11.9781C12.7167 12.2499 12.7732 12.5188 12.8824 12.7682C12.9917 13.0175 13.1515 13.2421 13.3519 13.4277C13.7686 13.8206 14.3222 14.0394 14.8974 14.0382ZM5.35948 4.9558H16.314L15.3717 2.37381C15.3392 2.28778 15.2899 2.20889 15.2264 2.14186C15.1631 2.07483 15.0868 2.02087 15.0023 1.98327C14.8163 1.91052 14.6095 1.91052 14.4236 1.98327L5.35948 4.9558Z" fill="url(#paint0_linear_107_2159)" stroke="url(#paint1_linear_107_2159)" stroke-width="0.3"/>
<defs>
<linearGradient id="paint0_linear_107_2159" x1="-2.5" y1="2" x2="23.5" y2="20" gradientUnits="userSpaceOnUse">
<stop offset="0.0468382" stop-color="#2CACDB"/>
<stop offset="1" stop-color="#A94FD8"/>
</linearGradient>
<linearGradient id="paint1_linear_107_2159" x1="-2.5" y1="2" x2="23.5" y2="20" gradientUnits="userSpaceOnUse">
<stop offset="0.0468382" stop-color="#2CACDB"/>
<stop offset="1" stop-color="#A94FD8"/>
</linearGradient>
</defs>
</svg>
